<?xml version="1.0" encoding="UTF-8" standalone="no"?>
<!-- Created with Inkscape (http://www.inkscape.org/) -->

<svg
   xmlns:dc="http://purl.org/dc/elements/1.1/"
   xmlns:cc="http://creativecommons.org/ns#"
   xmlns:rdf="http://www.w3.org/1999/02/22-rdf-syntax-ns#"
   xmlns:svg="http://www.w3.org/2000/svg"
   xmlns="http://www.w3.org/2000/svg"
   xmlns:sodipodi="http://sodipodi.sourceforge.net/DTD/sodipodi-0.dtd"
   xmlns:inkscape="http://www.inkscape.org/namespaces/inkscape"
   width="3.233016mm"
   height="3.2330101mm"
   viewBox="0 0 3.2330161 3.2330101"
   version="1.1"
   id="svg8"
   inkscape:version="0.92.3 (2405546, 2018-03-11)"
   sodipodi:docname="plus.svg">
  <defs
     id="defs2" />
  <sodipodi:namedview
     id="base"
     pagecolor="#565656"
     bordercolor="#666666"
     borderopacity="1.0"
     inkscape:pageopacity="0"
     inkscape:pageshadow="2"
     inkscape:zoom="63.356768"
     inkscape:cx="8.7154084"
     inkscape:cy="1.9151941"
     inkscape:document-units="mm"
     inkscape:current-layer="layer1"
     showgrid="false"
     inkscape:window-width="1366"
     inkscape:window-height="742"
     inkscape:window-x="0"
     inkscape:window-y="0"
     inkscape:window-maximized="1" />
  <metadata
     id="metadata5">
    <rdf:RDF>
      <cc:Work
         rdf:about="">
        <dc:format>image/svg+xml</dc:format>
        <dc:type
           rdf:resource="http://purl.org/dc/dcmitype/StillImage" />
        <dc:title />
      </cc:Work>
    </rdf:RDF>
  </metadata>
  <g
     inkscape:label="Layer 1"
     inkscape:groupmode="layer"
     id="layer1"
     transform="translate(-45.982955,-147.21138)">
    <path
       style="opacity:1;fill:#b3b3bf;fill-opacity:0.94117647;stroke:#000000;stroke-width:0.15000001;stroke-miterlimit:4;stroke-dasharray:none;stroke-opacity:1"
       d="m 47.599463,147.28638 c -0.314098,0 -0.56689,0.25279 -0.56689,0.56689 v 0.40772 h -0.407727 c -0.314098,0 -0.566891,0.2528 -0.566891,0.56689 0,0.3141 0.252793,0.56689 0.566891,0.56689 h 0.407727 v 0.40773 c 0,0.3141 0.252792,0.56689 0.56689,0.56689 0.314099,0 0.566891,-0.25279 0.566891,-0.56689 v -0.40773 h 0.40721 c 0.314098,0 0.567407,-0.25279 0.567407,-0.56689 0,-0.31409 -0.253309,-0.56689 -0.567407,-0.56689 h -0.40721 v -0.40772 c 0,-0.3141 -0.252792,-0.56689 -0.566891,-0.56689 z"
       id="rect817"
       inkscape:connector-curvature="0" />
  </g>
</svg>
