<?xml version="1.0" encoding="UTF-8" standalone="no"?>
<!-- Created with Inkscape (http://www.inkscape.org/) -->

<svg
   xmlns:dc="http://purl.org/dc/elements/1.1/"
   xmlns:cc="http://creativecommons.org/ns#"
   xmlns:rdf="http://www.w3.org/1999/02/22-rdf-syntax-ns#"
   xmlns:svg="http://www.w3.org/2000/svg"
   xmlns="http://www.w3.org/2000/svg"
   xmlns:sodipodi="http://sodipodi.sourceforge.net/DTD/sodipodi-0.dtd"
   xmlns:inkscape="http://www.inkscape.org/namespaces/inkscape"
   width="34.872223mm"
   height="5.5916667mm"
   viewBox="0 0 34.872223 5.5916667"
   version="1.1"
   id="svg8"
   inkscape:version="0.92.3 (2405546, 2018-03-11)"
   sodipodi:docname="slider-h2.svg">
  <defs
     id="defs2" />
  <sodipodi:namedview
     id="base"
     pagecolor="#454545"
     bordercolor="#626262"
     borderopacity="1"
     inkscape:pageopacity="0"
     inkscape:pageshadow="2"
     inkscape:zoom="5.6"
     inkscape:cx="67.332898"
     inkscape:cy="-0.74078058"
     inkscape:document-units="mm"
     inkscape:current-layer="layer1"
     showgrid="false"
     inkscape:window-width="1350"
     inkscape:window-height="705"
     inkscape:window-x="0"
     inkscape:window-y="26"
     inkscape:window-maximized="1" />
  <metadata
     id="metadata5">
    <rdf:RDF>
      <cc:Work
         rdf:about="">
        <dc:format>image/svg+xml</dc:format>
        <dc:type
           rdf:resource="http://purl.org/dc/dcmitype/StillImage" />
        <dc:title />
      </cc:Work>
    </rdf:RDF>
  </metadata>
  <g
     inkscape:label="Layer 1"
     inkscape:groupmode="layer"
     id="layer1"
     transform="translate(-151.89723,-190.63868)">
    <g
       id="g844"
       transform="matrix(0.97824679,0,0,1.0605888,3.683543,-11.719966)"
       style="stroke-width:0.98175311">
      <rect
         style="opacity:1;fill:#404040;fill-opacity:1;stroke:#393939;stroke-width:0.21381494;stroke-linecap:round;stroke-miterlimit:4;stroke-dasharray:none;stroke-opacity:1;paint-order:markers fill stroke"
         id="rect816"
         width="34.654434"
         height="2.7822111"
         x="152.00612"
         y="192.04341"
         ry="1.3911055" />
      <path
         sodipodi:nodetypes="sscsscsss"
         id="rect820"
         d="m 153.39741,192.04325 c -0.77068,0 -1.39113,0.62046 -1.39113,1.39113 0,0.0394 0.002,0.0782 0.006,0.11679 0.0593,-0.71523 0.65439,-0.85677 1.38545,-0.85677 h 31.87195 c 0.73107,0 1.32613,0.14154 1.38545,0.85677 0.003,-0.0386 0.006,-0.0774 0.006,-0.11679 0,-0.77067 -0.62046,-1.39113 -1.39113,-1.39113 z"
         style="opacity:1;fill:#151515;fill-opacity:1;stroke:none;stroke-width:0.21381494;stroke-linecap:round;stroke-miterlimit:4;stroke-dasharray:none;stroke-opacity:1;paint-order:markers fill stroke"
         inkscape:connector-curvature="0" />
      <path
         sodipodi:nodetypes="csssscsscc"
         id="rect830"
         d="m 152.00938,193.36927 c -0.001,0.0217 -0.003,0.0431 -0.003,0.0651 0,0.77067 0.62045,1.39113 1.39113,1.39113 h 31.87195 c 0.77068,0 1.39113,-0.62046 1.39113,-1.39113 0,-0.022 -0.002,-0.0434 -0.003,-0.0651 -0.0338,0.74023 -0.63917,1.18509 -1.38803,1.18509 H 153.3976 c -0.74886,0 -1.35427,-0.44486 -1.38803,-1.18509 z"
         style="opacity:1;fill:#e6e6e6;fill-opacity:1;stroke:none;stroke-width:0.21381494;stroke-linecap:round;stroke-miterlimit:4;stroke-dasharray:none;stroke-opacity:1;paint-order:markers fill stroke"
         inkscape:connector-curvature="0" />
    </g>
  </g>
</svg>
